<svg xmlns="http://www.w3.org/2000/svg" width="16.333" height="17" viewBox="0 0 16.333 17">
  <g id="github" transform="translate(-1.667 -2)">
    <path id="c2_github" data-name="c2/github" d="M5.833,3.715A3.775,3.775,0,0,1,1.687,2.28a1.472,1.472,0,0,0-.268-.314,1.061,1.061,0,0,0-.643-.3A.833.833,0,0,1,.89,0,2.7,2.7,0,0,1,2.541.734a3.014,3.014,0,0,1,.587.709,1.606,1.606,0,0,0,1.38.687,3.8,3.8,0,0,0,1.339-.161q-.014.153-.014.309Z" transform="translate(1.667 12.5)" fill="#e6007a" opacity="0.5"/>
    <path id="c1_github" data-name="c1/github" d="M9.059,17H4.941a1.676,1.676,0,0,1-1.648-1.7V13.374A3.475,3.475,0,0,1,3.779,11.6,5.419,5.419,0,0,1,0,6.343,4.708,4.708,0,0,1,.823,3.713C.811,1.844,1.006.837,1.476.349A1.172,1.172,0,0,1,2.369,0,4.689,4.689,0,0,1,4.837,1.053a8.865,8.865,0,0,1,4.328,0A4.687,4.687,0,0,1,11.633,0a1.172,1.172,0,0,1,.893.35c.47.489.665,1.5.652,3.367A4.706,4.706,0,0,1,14,6.343,5.418,5.418,0,0,1,10.222,11.6a3.482,3.482,0,0,1,.484,1.776V15.3A1.676,1.676,0,0,1,9.059,17ZM2.625,1.75q-.01.038-.02.08a9.934,9.934,0,0,0-.132,2.144l.005.3-.18.237a2.992,2.992,0,0,0-.651,1.831A3.8,3.8,0,0,0,2.64,8.955a4.05,4.05,0,0,0,2.712,1.23.437.437,0,0,1,.415.444l0,1.066a.389.389,0,0,1-.168.321,1.7,1.7,0,0,0-.656,1.358V14.96a.335.335,0,0,0,.329.34H8.73a.335.335,0,0,0,.329-.34V13.374A1.7,1.7,0,0,0,8.4,12.012a.375.375,0,0,1-.162-.311V10.628a.436.436,0,0,1,.414-.444,4.045,4.045,0,0,0,2.709-1.23,3.8,3.8,0,0,0,.993-2.612,2.985,2.985,0,0,0-.65-1.828l-.18-.237.005-.3A10.036,10.036,0,0,0,11.4,1.831c-.007-.029-.013-.056-.02-.081a6.585,6.585,0,0,0-1.584.922l-.328.239-.384-.119a7.214,7.214,0,0,0-4.16,0l-.384.119L4.21,2.671A6.6,6.6,0,0,0,2.625,1.75Z" transform="translate(4 2)" fill="#e6007a"/>
  </g>
</svg>
