<svg width="15" height="12" viewBox="0 0 15 12" fill="none" xmlns="http://www.w3.org/2000/svg">
<path d="M13.8035 1.41069L15 0.25374V0H10.8539L7.89884 7.43267L4.5368 0H0.189449V0.25374L1.5872 1.95389C1.72391 2.07943 1.79411 2.26272 1.77665 2.44855V9.13557C1.81855 9.37662 1.74335 9.62333 1.57451 9.79878L0 11.7252V11.9753H4.4661V11.7252L2.89068 9.80153C2.7199 9.6268 2.63975 9.38145 2.67404 9.13832V3.35176L6.59445 11.9789H7.04768L10.4242 3.35176V10.222C10.4242 10.4052 10.4242 10.4409 10.3064 10.5591L9.09355 11.7444V12H14.9764V11.7463L13.808 10.5893C13.7049 10.5108 13.6532 10.381 13.6739 10.2522V1.74779C13.6526 1.6191 13.704 1.48917 13.8071 1.41069H13.8035Z" fill="#E6007A"/>
</svg>
