<svg xmlns="http://www.w3.org/2000/svg" width="16.667" height="15" viewBox="0 0 16.667 15">
  <g id="twitter" transform="translate(-1.667 -2.5)">
    <path id="c2_twitter" data-name="c2/twitter" d="M1.793,5.056a.833.833,0,0,1,.332-1.634A2.232,2.232,0,0,0,3.169,3.38a.834.834,0,1,1,.469,1.6,3.824,3.824,0,0,1-1.079.152A3.86,3.86,0,0,1,1.793,5.056Zm.46-2.969A3.969,3.969,0,0,1,.416,1.555.833.833,0,1,1,1.25.112,2.3,2.3,0,0,0,2.315.421a.833.833,0,0,1-.031,1.666Z" transform="translate(1.668 7.191)" fill="#e6007a" opacity="0.5"/>
    <path id="c1_twitter" data-name="c1/twitter" d="M15.3,4.986a.531.531,0,0,0-.3.352A9.819,9.819,0,0,1,5,15,8.426,8.426,0,0,1,.391,13.641.932.932,0,0,1,0,12.859a.977.977,0,0,1,.973-.982,7.419,7.419,0,0,0,3.5-1.687A.833.833,0,0,1,5.53,11.477a11.063,11.063,0,0,1-2.542,1.554,8.059,8.059,0,0,0,2.012.3A8.167,8.167,0,0,0,13.333,5c0-.4.095-.6.7-1.047,0,0-.364-.364-.641-.687-.122-.142-.589-.712-.68-.813a2.233,2.233,0,0,0-1.687-.786A2.457,2.457,0,0,0,8.652,4.158l.011.106a1.343,1.343,0,0,1-1.5,1.473,8.784,8.784,0,0,1-6.152-3.56A.833.833,0,1,1,2.325,1.155,7.1,7.1,0,0,0,6.988,4.028,4.117,4.117,0,0,1,11.026,0a3.9,3.9,0,0,1,2.928,1.34c.12.134.6.723.7.84A2.656,2.656,0,0,0,15.4,2.9c.241.107.966.056,1.173.467a.833.833,0,0,1-.369,1.119A8.588,8.588,0,0,0,15.3,4.986Z" transform="translate(1.667 2.5)" fill="#e6007a"/>
  </g>
</svg>
