<svg xmlns="http://www.w3.org/2000/svg" width="18.333" height="14.667" viewBox="0 0 18.333 14.667">
  <g id="youtube" transform="translate(-1.833 -3.667)">
    <path id="c2_youtube" data-name="c2/youtube" d="M.957,7a.956.956,0,0,1-.82-.476A1,1,0,0,1,0,6.019V.981A.97.97,0,0,1,.956,0a.929.929,0,0,1,.491.14L5.536,2.659A1,1,0,0,1,5.864,4a.973.973,0,0,1-.328.337L1.447,6.86A.935.935,0,0,1,.957,7Zm.758-4.6V4.6L3.6,3.5Z" transform="translate(8 7)" fill="#e6007a" opacity="0.5"/>
    <path id="c1_youtube" data-name="c1/youtube" d="M7.333,12.833a.917.917,0,1,1,0,1.833H4.583A4.583,4.583,0,0,1,0,10.083v-5.5A4.583,4.583,0,0,1,4.583,0H13.75a4.583,4.583,0,0,1,4.583,4.583v5.5a4.583,4.583,0,0,1-4.583,4.583H11a.917.917,0,0,1,0-1.833h2.75a2.75,2.75,0,0,0,2.75-2.75v-5.5a2.75,2.75,0,0,0-2.75-2.75H4.583a2.75,2.75,0,0,0-2.75,2.75v5.5a2.75,2.75,0,0,0,2.75,2.75Z" transform="translate(1.833 3.667)" fill="#e6007a"/>
  </g>
</svg>
